<mxfile host="65bd71144e">
    <diagram id="BbMCG3jJo5Qy2htrxb48" name="Page-1">
        <mxGraphModel dx="1017" dy="1471" grid="1" gridSize="10" guides="1" tooltips="1" connect="1" arrows="1" fold="1" page="1" pageScale="1" pageWidth="850" pageHeight="1100" math="0" shadow="0">
            <root>
                <mxCell id="0"/>
                <mxCell id="1" parent="0"/>
                <mxCell id="2" value="t" style="whiteSpace=wrap;html=1;sketch=1;hachureGap=4;jiggle=2;curveFitting=1;fontFamily=Comic Sans MS;fontSize=20;" parent="1" vertex="1">
                    <mxGeometry x="300" y="60" width="490" height="290" as="geometry"/>
                </mxCell>
                <mxCell id="3" value="" style="edgeStyle=none;orthogonalLoop=1;jettySize=auto;html=1;sketch=1;hachureGap=4;jiggle=2;curveFitting=1;fontFamily=Architects Daughter;fontSource=https%3A%2F%2Ffonts.googleapis.com%2Fcss%3Ffamily%3DArchitects%2BDaughter;fontSize=16;entryX=0.5;entryY=0;entryDx=0;entryDy=0;" parent="1" source="2" target="2" edge="1">
                    <mxGeometry width="80" relative="1" as="geometry">
                        <mxPoint x="580" y="210" as="sourcePoint"/>
                        <mxPoint x="660" y="210" as="targetPoint"/>
                        <Array as="points">
                            <mxPoint x="535" y="350"/>
                        </Array>
                    </mxGeometry>
                </mxCell>
                <mxCell id="4" value="Global execution context" style="rounded=0;whiteSpace=wrap;html=1;sketch=1;hachureGap=4;jiggle=2;curveFitting=1;fontFamily=Comic Sans MS;fontSize=20;" parent="1" vertex="1">
                    <mxGeometry x="410" width="260" height="60" as="geometry"/>
                </mxCell>
                <mxCell id="5" value="Code" style="rounded=0;whiteSpace=wrap;html=1;sketch=1;hachureGap=4;jiggle=2;curveFitting=1;fontFamily=Comic Sans MS;fontSize=20;" parent="1" vertex="1">
                    <mxGeometry x="600" y="60" width="120" height="30" as="geometry"/>
                </mxCell>
                <mxCell id="6" value="variable" style="rounded=0;whiteSpace=wrap;html=1;sketch=1;hachureGap=4;jiggle=2;curveFitting=1;fontFamily=Comic Sans MS;fontSize=20;" parent="1" vertex="1">
                    <mxGeometry x="360" y="60" width="120" height="30" as="geometry"/>
                </mxCell>
                <mxCell id="8" value="&lt;div style=&quot;color: rgb(230, 237, 243); background-color: rgb(13, 17, 23); font-family: Consolas, &amp;quot;Courier New&amp;quot;, monospace; line-height: 19px;&quot;&gt;&lt;div style=&quot;&quot;&gt;&lt;font style=&quot;font-size: 20px;&quot;&gt;&lt;span style=&quot;color: rgb(121, 192, 255);&quot;&gt;console&lt;/span&gt;.&lt;span style=&quot;color: rgb(210, 168, 255);&quot;&gt;log&lt;/span&gt;(carName3);&lt;/font&gt;&lt;/div&gt;&lt;div style=&quot;&quot;&gt;&lt;font size=&quot;3&quot;&gt;&amp;nbsp;&lt;/font&gt;&lt;/div&gt;&lt;div style=&quot;&quot;&gt;&lt;font size=&quot;3&quot;&gt;&lt;span style=&quot;color: #ff7b72;&quot;&gt;var&lt;/span&gt; carName3 &lt;span style=&quot;color: #ff7b72;&quot;&gt;=&lt;/span&gt; &lt;span style=&quot;color: #a5d6ff;&quot;&gt;&quot;Volvo&quot;&lt;/span&gt;;&lt;/font&gt;&lt;/div&gt;&lt;div style=&quot;&quot;&gt;&lt;font size=&quot;3&quot;&gt;&amp;nbsp; &lt;span style=&quot;color: #8b949e;&quot;&gt;.&lt;/span&gt;&lt;/font&gt;&lt;/div&gt;&lt;div style=&quot;&quot;&gt;&lt;font size=&quot;3&quot;&gt;&lt;span style=&quot;color: rgb(121, 192, 255);&quot;&gt;console&lt;/span&gt;.&lt;span style=&quot;color: rgb(210, 168, 255);&quot;&gt;log&lt;/span&gt;(carName3);&amp;nbsp;&lt;/font&gt;&lt;/div&gt;&lt;/div&gt;" style="rounded=0;whiteSpace=wrap;html=1;sketch=1;hachureGap=4;jiggle=2;curveFitting=1;fontFamily=Comic Sans MS;fontSize=20;" parent="1" vertex="1">
                    <mxGeometry x="10" y="100" width="270" height="220" as="geometry"/>
                </mxCell>
                <mxCell id="9" value="&lt;h1&gt;Hoisting&lt;/h1&gt;" style="text;html=1;strokeColor=none;fillColor=none;spacing=5;spacingTop=-20;whiteSpace=wrap;overflow=hidden;rounded=0;sketch=1;hachureGap=4;jiggle=2;curveFitting=1;fontFamily=Comic Sans MS;fontSize=20;" parent="1" vertex="1">
                    <mxGeometry width="190" height="70" as="geometry"/>
                </mxCell>
                <mxCell id="10" value="carName3= undefined" style="text;html=1;strokeColor=none;fillColor=none;align=center;verticalAlign=middle;whiteSpace=wrap;rounded=0;sketch=1;hachureGap=4;jiggle=2;curveFitting=1;fontFamily=Comic Sans MS;fontSize=20;" parent="1" vertex="1">
                    <mxGeometry x="300" y="150" width="240" height="30" as="geometry"/>
                </mxCell>
                <mxCell id="11" value="carName3= Volvo" style="text;html=1;strokeColor=none;fillColor=none;align=center;verticalAlign=middle;whiteSpace=wrap;rounded=0;sketch=1;hachureGap=4;jiggle=2;curveFitting=1;fontFamily=Comic Sans MS;fontSize=20;" parent="1" vertex="1">
                    <mxGeometry x="550" y="180" width="190" height="30" as="geometry"/>
                </mxCell>
                <mxCell id="12" value="" style="rounded=0;whiteSpace=wrap;html=1;sketch=1;hachureGap=4;jiggle=2;curveFitting=1;fontFamily=Architects Daughter;fontSource=https%3A%2F%2Ffonts.googleapis.com%2Fcss%3Ffamily%3DArchitects%2BDaughter;fontSize=20;" vertex="1" parent="1">
                    <mxGeometry x="320" y="460" width="560" height="360" as="geometry"/>
                </mxCell>
                <mxCell id="13" value="" style="endArrow=none;html=1;sketch=1;hachureGap=4;jiggle=2;curveFitting=1;fontFamily=Architects Daughter;fontSource=https%3A%2F%2Ffonts.googleapis.com%2Fcss%3Ffamily%3DArchitects%2BDaughter;fontSize=16;entryX=0.5;entryY=0;entryDx=0;entryDy=0;exitX=0.5;exitY=1;exitDx=0;exitDy=0;" edge="1" parent="1" source="12" target="12">
                    <mxGeometry width="50" height="50" relative="1" as="geometry">
                        <mxPoint x="600" y="720" as="sourcePoint"/>
                        <mxPoint x="650" y="670" as="targetPoint"/>
                    </mxGeometry>
                </mxCell>
                <mxCell id="14" value="&lt;h1&gt;ques.js&lt;/h1&gt;" style="text;html=1;strokeColor=none;fillColor=none;spacing=5;spacingTop=-20;whiteSpace=wrap;overflow=hidden;rounded=0;sketch=1;hachureGap=4;jiggle=2;curveFitting=1;fontFamily=Architects Daughter;fontSource=https%3A%2F%2Ffonts.googleapis.com%2Fcss%3Ffamily%3DArchitects%2BDaughter;fontSize=20;" vertex="1" parent="1">
                    <mxGeometry x="10" y="380" width="190" height="80" as="geometry"/>
                </mxCell>
                <mxCell id="15" value="variable" style="rounded=0;whiteSpace=wrap;html=1;sketch=1;hachureGap=4;jiggle=2;curveFitting=1;fontFamily=Architects Daughter;fontSource=https%3A%2F%2Ffonts.googleapis.com%2Fcss%3Ffamily%3DArchitects%2BDaughter;fontSize=20;" vertex="1" parent="1">
                    <mxGeometry x="380" y="460" width="120" height="40" as="geometry"/>
                </mxCell>
                <mxCell id="16" value="code" style="rounded=0;whiteSpace=wrap;html=1;sketch=1;hachureGap=4;jiggle=2;curveFitting=1;fontFamily=Architects Daughter;fontSource=https%3A%2F%2Ffonts.googleapis.com%2Fcss%3Ffamily%3DArchitects%2BDaughter;fontSize=20;" vertex="1" parent="1">
                    <mxGeometry x="660" y="460" width="120" height="40" as="geometry"/>
                </mxCell>
                <mxCell id="20" value="&lt;div style=&quot;color: rgb(230, 237, 243); background-color: rgb(13, 17, 23); font-family: Consolas, &amp;quot;Courier New&amp;quot;, monospace; line-height: 19px;&quot;&gt;&lt;div style=&quot;&quot;&gt;&lt;font style=&quot;font-size: 20px;&quot;&gt;&lt;span style=&quot;color: rgb(255, 123, 114);&quot;&gt;var&lt;/span&gt; variable &lt;span style=&quot;color: rgb(255, 123, 114);&quot;&gt;=&lt;/span&gt; &lt;span style=&quot;color: rgb(121, 192, 255);&quot;&gt;10&lt;/span&gt;;&lt;/font&gt;&lt;/div&gt;&lt;font size=&quot;3&quot;&gt;&lt;br&gt;&lt;/font&gt;&lt;div style=&quot;&quot;&gt;&lt;font size=&quot;3&quot;&gt;(()&lt;span style=&quot;color: #ff7b72;&quot;&gt;=&amp;gt;&lt;/span&gt;{&lt;/font&gt;&lt;/div&gt;&lt;div style=&quot;&quot;&gt;&lt;font size=&quot;3&quot;&gt;&lt;br&gt;&lt;/font&gt;&lt;/div&gt;&lt;div style=&quot;&quot;&gt;&lt;font size=&quot;3&quot;&gt;&amp;nbsp; &amp;nbsp; &lt;span style=&quot;color: #79c0ff;&quot;&gt;console&lt;/span&gt;.&lt;span style=&quot;color: #d2a8ff;&quot;&gt;log&lt;/span&gt;(variable);&lt;/font&gt;&lt;/div&gt;&lt;div style=&quot;&quot;&gt;&lt;font size=&quot;3&quot;&gt;&lt;br&gt;&lt;/font&gt;&lt;/div&gt;&lt;div style=&quot;&quot;&gt;&lt;font size=&quot;3&quot;&gt;&amp;nbsp; &amp;nbsp; variable &lt;span style=&quot;color: #ff7b72;&quot;&gt;=&lt;/span&gt; &lt;span style=&quot;color: #79c0ff;&quot;&gt;20&lt;/span&gt;;&lt;/font&gt;&lt;/div&gt;&lt;div style=&quot;&quot;&gt;&lt;font size=&quot;3&quot;&gt;&lt;br&gt;&lt;/font&gt;&lt;/div&gt;&lt;div style=&quot;&quot;&gt;&lt;font size=&quot;3&quot;&gt;&amp;nbsp; &amp;nbsp; &lt;span style=&quot;color: #79c0ff;&quot;&gt;console&lt;/span&gt;.&lt;span style=&quot;color: #d2a8ff;&quot;&gt;log&lt;/span&gt;(variable);&lt;/font&gt;&lt;/div&gt;&lt;div style=&quot;&quot;&gt;&lt;font size=&quot;3&quot;&gt;&lt;br&gt;&lt;/font&gt;&lt;/div&gt;&lt;div style=&quot;&quot;&gt;&lt;font size=&quot;3&quot;&gt;})();&lt;/font&gt;&lt;/div&gt;&lt;div style=&quot;&quot;&gt;&lt;font size=&quot;3&quot;&gt;&lt;br&gt;&lt;/font&gt;&lt;/div&gt;&lt;div style=&quot;&quot;&gt;&lt;font size=&quot;3&quot;&gt;&lt;span style=&quot;color: #79c0ff;&quot;&gt;console&lt;/span&gt;.&lt;span style=&quot;color: #d2a8ff;&quot;&gt;log&lt;/span&gt;(variable);&lt;/font&gt;&lt;/div&gt;&lt;div style=&quot;&quot;&gt;&lt;font size=&quot;3&quot;&gt;&lt;br&gt;&lt;/font&gt;&lt;/div&gt;&lt;div style=&quot;&quot;&gt;&lt;font size=&quot;3&quot;&gt;&lt;span style=&quot;color: rgb(255, 123, 114);&quot;&gt;var&lt;/span&gt; variable &lt;span style=&quot;color: rgb(255, 123, 114);&quot;&gt;=&lt;/span&gt; &lt;span style=&quot;color: rgb(121, 192, 255);&quot;&gt;30&lt;/span&gt;;&lt;/font&gt;&lt;/div&gt;&lt;/div&gt;" style="rounded=0;whiteSpace=wrap;html=1;sketch=1;hachureGap=4;jiggle=2;curveFitting=1;fontFamily=Architects Daughter;fontSource=https%3A%2F%2Ffonts.googleapis.com%2Fcss%3Ffamily%3DArchitects%2BDaughter;fontSize=20;" vertex="1" parent="1">
                    <mxGeometry x="10" y="470" width="270" height="320" as="geometry"/>
                </mxCell>
                <mxCell id="21" value="&lt;br&gt;variable= undefined" style="text;html=1;strokeColor=none;fillColor=none;align=center;verticalAlign=middle;whiteSpace=wrap;rounded=0;sketch=1;hachureGap=4;jiggle=2;curveFitting=1;fontFamily=Architects Daughter;fontSource=https%3A%2F%2Ffonts.googleapis.com%2Fcss%3Ffamily%3DArchitects%2BDaughter;fontSize=20;" vertex="1" parent="1">
                    <mxGeometry x="330" y="520" width="250" height="60" as="geometry"/>
                </mxCell>
                <mxCell id="22" value="variable = 10&lt;br&gt;10&lt;br&gt;variable = 20&lt;br&gt;20&lt;br&gt;20" style="text;html=1;strokeColor=none;fillColor=none;align=center;verticalAlign=middle;whiteSpace=wrap;rounded=0;sketch=1;hachureGap=4;jiggle=2;curveFitting=1;fontFamily=Architects Daughter;fontSource=https%3A%2F%2Ffonts.googleapis.com%2Fcss%3Ffamily%3DArchitects%2BDaughter;fontSize=20;" vertex="1" parent="1">
                    <mxGeometry x="610" y="520" width="250" height="270" as="geometry"/>
                </mxCell>
            </root>
        </mxGraphModel>
    </diagram>
    <diagram id="ARxWx-3CmkOfrql0OkOb" name="Page-2">
        <mxGraphModel dx="777" dy="357" grid="1" gridSize="10" guides="1" tooltips="1" connect="1" arrows="1" fold="1" page="1" pageScale="1" pageWidth="850" pageHeight="1100" math="0" shadow="0">
            <root>
                <mxCell id="0"/>
                <mxCell id="1" parent="0"/>
            </root>
        </mxGraphModel>
    </diagram>
</mxfile>